<svg width="32" height="32" viewBox="0 0 32 32" xmlns="http://www.w3.org/2000/svg">
  <path d="M15.478 14.182c0-.842.687-1.165 1.832-1.165 1.634 0 3.7.498 5.334 1.381V10.13c-1.773-.72-3.525-1-5.334-1-4.362 0-7.277 2.28-7.277 5.44 0 5.318 7.318 4.46 7.318 6.74 0 .902-.784 1.203-1.89 1.203-1.634 0-3.722-.673-5.377-1.577v4.31c1.827.78 3.677 1.104 5.377 1.104 4.45 0 7.41-2.212 7.41-5.44-.022-5.74-7.393-4.716-7.393-6.74v.012zm29.688 7.924h3.854c-.08-4.777-3.677-8.366-8.556-8.366-5.267 0-8.921 3.81-8.921 9.228 0 6.075 4.164 9.014 9.431 9.014 2.736 0 4.847-.618 6.173-1.49v-3.83c-1.326.84-2.875 1.37-5.2 1.37-2.605 0-4.735-1.138-5.002-4.054h8.22v-1.872zm-8.266-2.01c.2-1.935 1.546-3.406 3.766-3.406 2.153 0 3.543 1.382 3.7 3.405h-7.466zm-12.018-6.357c-1.502 0-2.47.72-3.01 1.216l-.2-1.015h-4.23v23.088l4.803-1.023.02-5.61c.552.44 1.502 1.075 2.984 1.075 3.01 0 5.755-2.42 5.755-8.884-.022-5.592-2.79-8.847-6.13-8.847h.008zm-1.062 13.82c-.993 0-1.59-.353-2.006-.79l-.022-6.235c.44-.478 1.062-.842 2.028-.842 1.546 0 2.627 1.74 2.627 3.922 0 2.258-1.062 3.946-2.627 3.946zm-12.972-17.4l4.824-1.024v-4.31l-4.824 1.024v4.31zm0 3.58h4.824v16.712h-4.824V13.74zM0 13.74h4.824v16.712H0V13.74z" fill="currentColor" fill-rule="evenodd"/>
</svg>